<?xml version="1.0" encoding="UTF-8" standalone="no"?>
<!-- Generator: Adobe Illustrator 27.4.1, SVG Export Plug-In . SVG Version: 6.00 Build 0)  -->

<svg
   version="1.1"
   id="Ebene_1"
   x="0px"
   y="0px"
   viewBox="0 0 392.19698 136.9"
   xml:space="preserve"
   sodipodi:docname="InKalkTier-NEU_nomargin.svg"
   width="392.19699"
   height="136.89999"
   inkscape:version="1.2 (dc2aedaf03, 2022-05-15)"
   xmlns:inkscape="http://www.inkscape.org/namespaces/inkscape"
   xmlns:sodipodi="http://sodipodi.sourceforge.net/DTD/sodipodi-0.dtd"
   xmlns:xlink="http://www.w3.org/1999/xlink"
   xmlns="http://www.w3.org/2000/svg"
   xmlns:svg="http://www.w3.org/2000/svg"><defs
   id="defs106" /><sodipodi:namedview
   id="namedview104"
   pagecolor="#ffffff"
   bordercolor="#000000"
   borderopacity="0.25"
   inkscape:showpageshadow="2"
   inkscape:pageopacity="0.0"
   inkscape:pagecheckerboard="0"
   inkscape:deskcolor="#d1d1d1"
   showgrid="false"
   inkscape:zoom="2.8363122"
   inkscape:cx="173.81725"
   inkscape:cy="57.46899"
   inkscape:window-width="1920"
   inkscape:window-height="1017"
   inkscape:window-x="3832"
   inkscape:window-y="-8"
   inkscape:window-maximized="1"
   inkscape:current-layer="Ebene_1" />
<style
   type="text/css"
   id="style55">
	.st0{fill:none;}
	.st1{clip-path:url(#SVGID_00000101089566619264748770000015184813127955816085_);}
	.st2{fill:#A3A6A2;}
	.st3{clip-path:url(#SVGID_00000074430015484169185230000009917303554937958815_);}
	.st4{fill:#FFFFFF;}
	.st5{fill:none;stroke:#FFFFFF;stroke-width:1.782;stroke-miterlimit:10;}
	.st6{fill:#253C5D;}
	.st7{fill:#4FAF76;}
	.st8{fill:#666C69;}
	.st9{fill:#858884;}
</style>
<g
   id="Group_3"
   transform="translate(121.097,3.619)">
	<path
   id="Clip_2-2"
   class="st0"
   d="m 199.6,33.2 h 71.5 v 63.3 h -71.5 z" />
	<g
   id="g66">
		<defs
   id="defs59">
			<rect
   id="SVGID_1_"
   x="199.60001"
   y="33.200001"
   width="71.5"
   height="63.299999" />
		</defs>
		<clipPath
   id="SVGID_00000078727756989944004470000007960119460154946732_">
			<use
   xlink:href="#SVGID_1_"
   style="overflow:visible"
   id="use61" />
		</clipPath>
		<g
   id="Group_3-2"
   clip-path="url(#SVGID_00000078727756989944004470000007960119460154946732_)">
			<path
   id="Fill_1"
   class="st2"
   d="m 252.7,33.2 h -34.6 c -0.4,0 -0.8,0.2 -1,0.6 l -17.3,30.5 c -0.2,0.4 -0.2,0.8 0,1.2 L 217.1,96 c 0.2,0.4 0.6,0.6 1,0.6 h 34.6 c 0.4,0 0.8,-0.2 1,-0.6 L 271,65.4 c 0.2,-0.4 0.2,-0.8 0,-1.2 L 253.7,33.7 c -0.2,-0.3 -0.6,-0.5 -1,-0.5" />
		</g>
	</g>
</g>
<path
   id="Clip_5-2"
   class="st0"
   d="M 0,136.9 H 392.3 V 0 H 0 Z" />
<g
   id="g101"
   transform="translate(-19.5,-12.5)">
	<defs
   id="defs71">
		<rect
   id="SVGID_00000007405208504135254380000007620352996944665985_"
   x="19.5"
   y="12.5"
   width="392.29999"
   height="136.89999" />
	</defs>
	<clipPath
   id="SVGID_00000152978504766547456210000000888033838765654669_">
		<use
   xlink:href="#SVGID_00000007405208504135254380000007620352996944665985_"
   style="overflow:visible"
   id="use73" />
	</clipPath>
	<g
   id="Gruppe_maskieren_5"
   clip-path="url(#SVGID_00000152978504766547456210000000888033838765654669_)">
		<path
   id="Fill_4"
   class="st4"
   d="m 364.8,94.2 h 6.1 V 71.8 h -6.1 z" />
		<path
   id="Fill_6"
   class="st4"
   d="M 372.9,94.2 H 379 V 61.5 h -6.1 z" />
		<path
   id="Fill_7"
   class="st4"
   d="m 381.1,94.2 h 6.1 V 67.7 h -6.1 z" />
		<g
   id="Group_10"
   transform="translate(149.552,36.716)">
			<path
   id="Fill_8"
   class="st4"
   d="m 211.1,60.7 h 30.6" />
			<path
   id="Stroke_9"
   class="st5"
   d="m 211.1,60.7 h 30.6" />
		</g>
		<path
   id="Fill_11"
   class="st6"
   d="M 267.8,112.6 H 186 c -0.5,0 -1,-0.4 -1.1,-0.9 -0.1,-0.6 0.3,-1.1 0.8,-1.2 0.1,0 0.1,0 0.2,0 h 80.6 c 0.4,0 0.8,-0.2 1,-0.6 l 16.9,-29.4 c 0.2,-0.4 0.2,-0.8 0,-1.2 L 267,48.9 c -0.3,-0.5 -0.2,-1 0.2,-1.4 0.4,-0.4 1.1,-0.3 1.5,0.1 0,0 0.1,0.1 0.1,0.2 L 287,79.3 c 0.2,0.4 0.2,0.8 0,1.2 L 268.8,112 c -0.2,0.4 -0.6,0.6 -1,0.6" />
		<path
   id="Fill_12"
   class="st7"
   d="m 329.9,12.5 h -34.6 c -0.4,0 -0.8,0.2 -1,0.6 L 277,43.6 c -0.2,0.4 -0.2,0.8 0,1.2 l 17.3,30.5 c 0.2,0.4 0.6,0.6 1,0.6 h 34.6 c 0.4,0 0.8,-0.2 1,-0.6 l 17.3,-30.5 c 0.2,-0.4 0.2,-0.8 0,-1.2 L 331,13.1 c -0.2,-0.4 -0.6,-0.6 -1.1,-0.6" />
		<path
   id="Fill_13"
   class="st4"
   d="m 321.6,49.3 c -2.8,0 -5.2,-2.1 -5.6,-4.9 -2.2,2 -5.5,1.9 -7.7,-0.1 -0.7,3 -3.7,4.9 -6.7,4.2 -2.6,-0.6 -4.4,-2.8 -4.4,-5.5 0,-0.2 0,-0.4 0.1,-0.7 v -0.1 h -0.2 c -0.1,0 -0.2,0 -0.3,0 -3.1,0 -5.6,-2.5 -5.6,-5.6 0,-3.1 2.5,-5.6 5.6,-5.6 0.1,0 0.2,0 0.3,0 0.1,0 0.1,0 0.2,0 -0.2,-0.6 -0.3,-1.2 -0.3,-1.9 0,-3.1 2.5,-5.6 5.6,-5.6 0.9,0 1.9,0.2 2.7,0.7 0,0 0,-0.1 0,-0.1 0,0 0,-0.1 0,-0.1 0,-3.1 2.6,-5.6 5.7,-5.6 2.6,0 4.9,1.9 5.5,4.4 2,-2.4 5.5,-2.7 7.9,-0.7 1.1,0.9 1.8,2.3 2,3.7 2.9,-1.2 6.2,0.1 7.4,2.9 0.3,0.7 0.5,1.4 0.5,2.2 0,1.7 -0.8,3.3 -2.1,4.3 0.7,1 1.1,2.1 1.1,3.3 0,3.1 -2.5,5.6 -5.6,5.6 -0.1,0 -0.1,0 -0.2,0 0,0 -0.1,0 -0.1,0 -0.6,3.1 -3,5.2 -5.8,5.2 z" />
		<path
   id="Fill_14"
   class="st4"
   d="m 314.8,58.2 c 1.6,-2.2 3.2,-4.4 5,-6.5 -0.5,-0.1 -1,-0.2 -1.5,-0.4 -1.2,1.2 -3.4,3.9 -4.3,3.8 -0.7,-0.1 0.4,-5.1 0.9,-7.5 0,-0.1 0,-0.2 -0.1,-0.3 -0.5,0.5 -1.1,0.8 -1.7,1.1 -0.6,2.2 -1.4,5.2 -1.8,5 -0.9,-1.6 -1.7,-3.4 -2.4,-5.1 -0.6,-0.3 -1.1,-0.6 -1.6,-1.1 0,0 0,0.1 0,0.1 1,2.4 1.7,4.8 2.2,7.3 -0.3,0.2 -2.8,-2.2 -4.5,-3.9 -0.4,0.3 -1.3,0.2 -1.7,0.3 2.1,2 4.1,4.1 5.9,6.4 0.5,1.8 0.6,3.7 0.3,5.6 -0.4,2.3 -0.9,4.5 -1.7,6.6 h 7.7 c -0.6,-2.3 -1.1,-4.6 -1.3,-7 0,-1.4 0.1,-2.9 0.6,-4.4" />
		<path
   id="Fill_15"
   class="st8"
   d="m 329.9,86.1 h -34.6 c -0.4,0 -0.8,0.2 -1,0.6 L 277,117.2 c -0.2,0.4 -0.2,0.8 0,1.2 l 17.3,30.5 c 0.2,0.4 0.6,0.6 1,0.6 h 34.6 c 0.4,0 0.8,-0.2 1,-0.6 l 17.3,-30.5 c 0.2,-0.4 0.2,-0.8 0,-1.2 L 331,86.6 c -0.2,-0.3 -0.6,-0.5 -1.1,-0.5" />
		<path
   id="Fill_16"
   class="st9"
   d="m 19.5,96.3 h 4.1 V 65.6 h -4.1 z" />
		<path
   id="Fill_17"
   class="st9"
   d="M 58.3,96.3 H 51.9 L 36.2,71.9 H 36 l 0.1,1.4 c 0.2,2.6 0.3,5 0.3,7.1 V 96.3 H 31.7 V 65.6 H 38 l 15.6,24.3 h 0.1 c 0,-0.3 -0.1,-1.5 -0.2,-3.5 -0.1,-2 -0.1,-3.6 -0.1,-4.7 V 65.6 h 4.8 v 30.7 z" />
		<path
   id="Fill_18"
   class="st9"
   d="M 91,96.3 H 84.9 L 74.8,82.4 71.7,84.8 V 96.3 H 66.5 V 65.6 h 5.2 v 14.6 c 1.4,-1.7 2.9,-3.3 4.3,-4.8 l 8.7,-9.8 h 6 C 85,71.9 81,76.4 78.6,79.1 Z" />
		<path
   id="Fill_19"
   class="st9"
   d="M 98.3,96.3 H 93 l 11.6,-30.6 h 5.5 l 11.6,30.6 h -5.4 l -3.1,-8.5 h -11.8 z m 9,-26.4 v 0 c -0.4,1.9 -1,3.8 -1.7,5.6 l -2.8,8 h 9 l -2.9,-8.3 c -0.2,-0.6 -0.5,-1.4 -0.9,-2.6 -0.3,-1.2 -0.6,-2.1 -0.7,-2.7 z" />
		<path
   id="Fill_20"
   class="st9"
   d="M 125.7,96.3 V 65.6 h 5.1 V 92 h 13.3 v 4.3 z" />
		<path
   id="Fill_21"
   class="st9"
   d="m 174.7,96.3 h -6.1 l -10.1,-13.9 -3.1,2.4 v 11.5 h -5.2 V 65.6 h 5.2 v 14.6 c 1.4,-1.7 2.9,-3.3 4.3,-4.8 l 8.7,-9.8 h 6 c -5.6,6.3 -9.6,10.8 -12.1,13.4 z" />
		<path
   id="Fill_22"
   class="st6"
   d="m 190.5,96.3 h -4.9 V 69.9 h -8.8 v -4.3 h 22.5 v 4.3 h -8.8 z" />
		<path
   id="Fill_23"
   class="st6"
   d="m 205.4,96.3 h 4.1 V 65.6 h -4.1 z" />
		<path
   id="Fill_24"
   class="st6"
   d="M 236,96.3 H 217.6 V 65.6 H 236 v 4.2 h -13 v 8.3 h 12.3 v 4.2 H 223 V 92 h 13 z" />
		<path
   id="Fill_25"
   class="st6"
   d="m 247.1,96.3 h -4.9 V 65.6 h 8.5 c 3,-0.2 6,0.6 8.6,2.2 1.9,1.7 3,4.2 2.8,6.7 0.1,3.7 -2.3,7 -5.8,8.2 l 8.5,13.6 h -5.6 L 251.9,84 h -4.8 z m 0,-26.4 v 10 h 3.4 c 1.8,0.1 3.5,-0.3 5,-1.3 1.1,-1 1.6,-2.4 1.5,-3.9 0.1,-1.4 -0.5,-2.9 -1.7,-3.7 -1.5,-0.9 -3.3,-1.3 -5,-1.1 z" />
		<path
   id="Fill_26"
   class="st4"
   d="m 336.1,111.7 c 0,-1.7 -1.4,-3.1 -3.1,-3.1 -1.7,0 -3.1,1.4 -3.1,3.1 v 0 4.1 l 4.8,2.8 -1.9,3.9 -0.5,-0.3 v 4.8 h 3.8 z" />
		<path
   id="Fill_27"
   class="st4"
   d="m 327.5,111 v 0 c 0.1,-1.6 1,-3 2.5,-3.6 v -1.5 0 c -0.2,-2.1 -2,-3.6 -4.1,-3.5 -2.1,-0.1 -3.9,1.4 -4.1,3.5 v 0 6 l 5.7,2.8 z" />
		<path
   id="Fill_28"
   class="st4"
   d="m 331,121 1,-1.9 -20.4,-10.6 -20.4,10.6 1,1.9 1.2,-0.6 v 8.6 h 10.7 v -6.6 H 319 v 6.6 h 10.7 v -8.6 z" />
	</g>
</g>
</svg>
